<?xml version="1.0" encoding="UTF-8" standalone="no"?>
<!DOCTYPE svg PUBLIC "-//W3C//DTD SVG 1.0//EN" "http://www.w3.org/TR/2001/PR-SVG-20010719/DTD/svg10.dtd">
<svg width="13cm" height="10cm" viewBox="659 231 244 186" xmlns="http://www.w3.org/2000/svg" xmlns:xlink="http://www.w3.org/1999/xlink">
  <g>
    <rect style="fill: #ffffff" x="660" y="260" width="80" height="36" rx="10" ry="10"/>
    <rect style="fill: none; fill-opacity:0; stroke-width: 2; stroke: #000000" x="660" y="260" width="80" height="36" rx="10" ry="10"/>
    <text font-size="12.8" style="fill: #000000;text-anchor:middle;font-family:sans-serif;font-style:normal;font-weight:normal" x="700" y="282.8">
      <tspan x="700" y="282.8">Paused</tspan>
    </text>
  </g>
  <g>
    <rect style="fill: #ffffff" x="790" y="260" width="109.5" height="52" rx="10" ry="10"/>
    <rect style="fill: none; fill-opacity:0; stroke-width: 2; stroke: #000000" x="790" y="260" width="109.5" height="52" rx="10" ry="10"/>
    <text font-size="12.8" style="fill: #000000;text-anchor:middle;font-family:sans-serif;font-style:normal;font-weight:normal" x="844.75" y="282.8">
      <tspan x="844.75" y="282.8">Incomplet Local</tspan>
      <tspan x="844.75" y="298.8">Search</tspan>
    </text>
  </g>
  <g>
    <rect style="fill: #ffffff" x="660" y="380" width="80" height="36" rx="10" ry="10"/>
    <rect style="fill: none; fill-opacity:0; stroke-width: 2; stroke: #000000" x="660" y="380" width="80" height="36" rx="10" ry="10"/>
    <text font-size="12.8" style="fill: #000000;text-anchor:middle;font-family:sans-serif;font-style:normal;font-weight:normal" x="700" y="402.8">
      <tspan x="700" y="402.8">Long Walk</tspan>
    </text>
  </g>
  <g>
    <rect style="fill: #ffffff" x="810" y="380" width="91.1" height="36" rx="10" ry="10"/>
    <rect style="fill: none; fill-opacity:0; stroke-width: 2; stroke: #000000" x="810" y="380" width="91.1" height="36" rx="10" ry="10"/>
    <text font-size="12.8" style="fill: #000000;text-anchor:middle;font-family:sans-serif;font-style:normal;font-weight:normal" x="855.55" y="402.8">
      <tspan x="855.55" y="402.8">Local Search</tspan>
    </text>
  </g>
  <g>
    <line style="fill: none; fill-opacity:0; stroke-width: 2; stroke: #000000" x1="700" y1="296.999" x2="700" y2="369.265"/>
    <polygon style="fill: #000000" points="700,376.765 695,366.765 700,369.265 705,366.765 "/>
    <polygon style="fill: none; fill-opacity:0; stroke-width: 2; stroke: #000000" points="700,376.765 695,366.765 700,369.265 705,366.765 "/>
  </g>
  <g>
    <line style="fill: none; fill-opacity:0; stroke-width: 2; stroke: #000000" x1="740.862" y1="398" x2="799.293" y2="398"/>
    <polygon style="fill: #000000" points="806.793,398 796.793,403 799.293,398 796.793,393 "/>
    <polygon style="fill: none; fill-opacity:0; stroke-width: 2; stroke: #000000" points="806.793,398 796.793,403 799.293,398 796.793,393 "/>
  </g>
  <g>
    <path style="fill: none; fill-opacity:0; stroke-width: 2; stroke: #000000" d="M 808.992,381.051 A 161.224,161.224 0 0 0 750.382,380.344"/>
    <polygon style="fill: #000000" points="743.031,381.772 751.62,374.615 750.332,380.055 753.91,384.349 "/>
    <polygon style="fill: none; fill-opacity:0; stroke-width: 2; stroke: #000000" points="743.031,381.772 751.62,374.615 750.332,380.055 753.91,384.349 "/>
  </g>
  <g>
    <path style="fill: none; fill-opacity:0; stroke-width: 2; stroke: #000000" d="M 710.798,379.901 A 100,100 0 0 0 714.431,305.095"/>
    <polygon style="fill: #000000" points="711.735,298.13 720.465,305.114 714.878,304.939 711.385,309.304 "/>
    <polygon style="fill: none; fill-opacity:0; stroke-width: 2; stroke: #000000" points="711.735,298.13 720.465,305.114 714.878,304.939 711.385,309.304 "/>
  </g>
  <g>
    <ellipse style="fill: #ffffff" cx="717.944" cy="356.306" rx="10" ry="10"/>
    <ellipse style="fill: none; fill-opacity:0; stroke-width: 1; stroke: #000000" cx="717.944" cy="356.306" rx="10" ry="10"/>
    <line style="fill: none; fill-opacity:0; stroke-width: 1; stroke: #000000" x1="717.944" y1="346.306" x2="717.944" y2="349.806"/>
    <line style="fill: none; fill-opacity:0; stroke-width: 1; stroke: #000000" x1="722.944" y1="347.646" x2="721.944" y2="349.378"/>
    <line style="fill: none; fill-opacity:0; stroke-width: 1; stroke: #000000" x1="726.604" y1="351.306" x2="724.872" y2="352.306"/>
    <line style="fill: none; fill-opacity:0; stroke-width: 1; stroke: #000000" x1="727.944" y1="356.306" x2="724.944" y2="356.306"/>
    <line style="fill: none; fill-opacity:0; stroke-width: 1; stroke: #000000" x1="726.604" y1="361.306" x2="724.872" y2="360.306"/>
    <line style="fill: none; fill-opacity:0; stroke-width: 1; stroke: #000000" x1="722.944" y1="364.966" x2="721.944" y2="363.234"/>
    <line style="fill: none; fill-opacity:0; stroke-width: 1; stroke: #000000" x1="717.944" y1="366.306" x2="717.944" y2="363.306"/>
    <line style="fill: none; fill-opacity:0; stroke-width: 1; stroke: #000000" x1="712.944" y1="364.966" x2="713.944" y2="363.234"/>
    <line style="fill: none; fill-opacity:0; stroke-width: 1; stroke: #000000" x1="709.284" y1="361.306" x2="711.016" y2="360.306"/>
    <line style="fill: none; fill-opacity:0; stroke-width: 1; stroke: #000000" x1="707.944" y1="356.306" x2="710.944" y2="356.306"/>
    <line style="fill: none; fill-opacity:0; stroke-width: 1; stroke: #000000" x1="709.284" y1="351.306" x2="711.016" y2="352.306"/>
    <line style="fill: none; fill-opacity:0; stroke-width: 1; stroke: #000000" x1="712.944" y1="347.646" x2="713.944" y2="349.378"/>
    <line style="fill: none; fill-opacity:0; stroke-width: 2; stroke: #00007f" x1="713.028" y1="355.395" x2="717.944" y2="356.306"/>
    <line style="fill: none; fill-opacity:0; stroke-width: 2; stroke: #00007f" x1="724.416" y1="361.008" x2="717.944" y2="356.306"/>
    <line style="fill: none; fill-opacity:0; stroke-width: 0.666667; stroke: #000000" x1="726.397" y1="357.194" x2="717.944" y2="356.306"/>
    <ellipse style="fill: #000000" cx="717.944" cy="356.306" rx="2.25" ry="2.25"/>
  </g>
  <g>
    <line style="fill: none; fill-opacity:0; stroke-width: 2; stroke: #000000" x1="830.815" y1="379.011" x2="792.486" y2="349.586"/>
    <polygon style="fill: #000000" points="786.537,345.019 797.514,347.142 792.486,349.586 791.424,355.074 "/>
    <polygon style="fill: none; fill-opacity:0; stroke-width: 2; stroke: #000000" points="786.537,345.019 797.514,347.142 792.486,349.586 791.424,355.074 "/>
  </g>
  <g>
    <ellipse style="fill: #ffffff" cx="814.16" cy="364.204" rx="10" ry="10"/>
    <ellipse style="fill: none; fill-opacity:0; stroke-width: 1; stroke: #000000" cx="814.16" cy="364.204" rx="10" ry="10"/>
    <line style="fill: none; fill-opacity:0; stroke-width: 1; stroke: #000000" x1="814.16" y1="354.204" x2="814.16" y2="357.704"/>
    <line style="fill: none; fill-opacity:0; stroke-width: 1; stroke: #000000" x1="819.16" y1="355.544" x2="818.16" y2="357.276"/>
    <line style="fill: none; fill-opacity:0; stroke-width: 1; stroke: #000000" x1="822.82" y1="359.204" x2="821.088" y2="360.204"/>
    <line style="fill: none; fill-opacity:0; stroke-width: 1; stroke: #000000" x1="824.16" y1="364.204" x2="821.16" y2="364.204"/>
    <line style="fill: none; fill-opacity:0; stroke-width: 1; stroke: #000000" x1="822.82" y1="369.204" x2="821.088" y2="368.204"/>
    <line style="fill: none; fill-opacity:0; stroke-width: 1; stroke: #000000" x1="819.16" y1="372.864" x2="818.16" y2="371.132"/>
    <line style="fill: none; fill-opacity:0; stroke-width: 1; stroke: #000000" x1="814.16" y1="374.204" x2="814.16" y2="371.204"/>
    <line style="fill: none; fill-opacity:0; stroke-width: 1; stroke: #000000" x1="809.16" y1="372.864" x2="810.16" y2="371.132"/>
    <line style="fill: none; fill-opacity:0; stroke-width: 1; stroke: #000000" x1="805.5" y1="369.204" x2="807.232" y2="368.204"/>
    <line style="fill: none; fill-opacity:0; stroke-width: 1; stroke: #000000" x1="804.16" y1="364.204" x2="807.16" y2="364.204"/>
    <line style="fill: none; fill-opacity:0; stroke-width: 1; stroke: #000000" x1="805.5" y1="359.204" x2="807.232" y2="360.204"/>
    <line style="fill: none; fill-opacity:0; stroke-width: 1; stroke: #000000" x1="809.16" y1="355.544" x2="810.16" y2="357.276"/>
    <line style="fill: none; fill-opacity:0; stroke-width: 2; stroke: #00007f" x1="809.244" y1="363.293" x2="814.16" y2="364.204"/>
    <line style="fill: none; fill-opacity:0; stroke-width: 2; stroke: #00007f" x1="820.632" y1="368.906" x2="814.16" y2="364.204"/>
    <line style="fill: none; fill-opacity:0; stroke-width: 0.666667; stroke: #000000" x1="822.613" y1="365.092" x2="814.16" y2="364.204"/>
    <ellipse style="fill: #000000" cx="814.16" cy="364.204" rx="2.25" ry="2.25"/>
  </g>
  <g>
    <ellipse style="fill: #ffffff" cx="780" cy="340" rx="5" ry="5"/>
    <ellipse style="fill: none; fill-opacity:0; stroke-width: 2; stroke: #000000" cx="780" cy="340" rx="5" ry="5"/>
  </g>
  <g>
    <line style="fill: none; fill-opacity:0; stroke-width: 2; stroke: #000000" x1="784.584" y1="336.177" x2="804.89" y2="319.242"/>
    <polygon style="fill: #000000" points="810.65,314.439 806.172,324.683 804.89,319.242 799.768,317.004 "/>
    <polygon style="fill: none; fill-opacity:0; stroke-width: 2; stroke: #000000" points="810.65,314.439 806.172,324.683 804.89,319.242 799.768,317.004 "/>
  </g>
  <g>
    <line style="fill: none; fill-opacity:0; stroke-width: 2; stroke: #000000" x1="775.264" y1="336.329" x2="732.149" y2="302.915"/>
    <polygon style="fill: #000000" points="726.221,298.321 737.188,300.495 732.149,302.915 731.062,308.399 "/>
    <polygon style="fill: none; fill-opacity:0; stroke-width: 2; stroke: #000000" points="726.221,298.321 737.188,300.495 732.149,302.915 731.062,308.399 "/>
  </g>
  <g>
    <line style="fill: none; fill-opacity:0; stroke-width: 2; stroke: #000000" x1="789.02" y1="282.92" x2="750.724" y2="280.803"/>
    <polygon style="fill: #000000" points="743.235,280.39 753.496,275.949 750.724,280.803 752.944,285.934 "/>
    <polygon style="fill: none; fill-opacity:0; stroke-width: 2; stroke: #000000" points="743.235,280.39 753.496,275.949 750.724,280.803 752.944,285.934 "/>
  </g>
  <ellipse style="fill: #000000" cx="671" cy="342.261" rx="10" ry="10"/>
  <g>
    <ellipse style="fill: #ffffff" cx="675.157" cy="243.273" rx="10" ry="10"/>
    <ellipse style="fill: none; fill-opacity:0; stroke-width: 1; stroke: #000000" cx="675.157" cy="243.273" rx="10" ry="10"/>
    <line style="fill: none; fill-opacity:0; stroke-width: 1; stroke: #000000" x1="675.157" y1="233.273" x2="675.157" y2="236.773"/>
    <line style="fill: none; fill-opacity:0; stroke-width: 1; stroke: #000000" x1="680.157" y1="234.613" x2="679.157" y2="236.345"/>
    <line style="fill: none; fill-opacity:0; stroke-width: 1; stroke: #000000" x1="683.817" y1="238.273" x2="682.085" y2="239.273"/>
    <line style="fill: none; fill-opacity:0; stroke-width: 1; stroke: #000000" x1="685.157" y1="243.273" x2="682.157" y2="243.273"/>
    <line style="fill: none; fill-opacity:0; stroke-width: 1; stroke: #000000" x1="683.817" y1="248.273" x2="682.085" y2="247.273"/>
    <line style="fill: none; fill-opacity:0; stroke-width: 1; stroke: #000000" x1="680.157" y1="251.933" x2="679.157" y2="250.201"/>
    <line style="fill: none; fill-opacity:0; stroke-width: 1; stroke: #000000" x1="675.157" y1="253.273" x2="675.157" y2="250.273"/>
    <line style="fill: none; fill-opacity:0; stroke-width: 1; stroke: #000000" x1="670.157" y1="251.933" x2="671.157" y2="250.201"/>
    <line style="fill: none; fill-opacity:0; stroke-width: 1; stroke: #000000" x1="666.497" y1="248.273" x2="668.229" y2="247.273"/>
    <line style="fill: none; fill-opacity:0; stroke-width: 1; stroke: #000000" x1="665.157" y1="243.273" x2="668.157" y2="243.273"/>
    <line style="fill: none; fill-opacity:0; stroke-width: 1; stroke: #000000" x1="666.497" y1="238.273" x2="668.229" y2="239.273"/>
    <line style="fill: none; fill-opacity:0; stroke-width: 1; stroke: #000000" x1="670.157" y1="234.613" x2="671.157" y2="236.345"/>
    <line style="fill: none; fill-opacity:0; stroke-width: 2; stroke: #00007f" x1="670.241" y1="242.362" x2="675.157" y2="243.273"/>
    <line style="fill: none; fill-opacity:0; stroke-width: 2; stroke: #00007f" x1="681.629" y1="247.975" x2="675.157" y2="243.273"/>
    <line style="fill: none; fill-opacity:0; stroke-width: 0.666667; stroke: #000000" x1="683.611" y1="244.161" x2="675.157" y2="243.273"/>
    <ellipse style="fill: #000000" cx="675.157" cy="243.273" rx="2.25" ry="2.25"/>
  </g>
  <text font-size="12.8" style="fill: #000000;text-anchor:start;font-family:sans-serif;font-style:normal;font-weight:normal" x="689.737" y="244.534">
    <tspan x="689.737" y="244.534">All sim steps complete.</tspan>
  </text>
  <g>
    <line style="fill: none; fill-opacity:0; stroke-width: 2; stroke: #000000" x1="847.35" y1="312.961" x2="852.784" y2="369.319"/>
    <polygon style="fill: #000000" points="853.504,376.784 847.567,367.31 852.784,369.319 857.521,366.35 "/>
    <polygon style="fill: none; fill-opacity:0; stroke-width: 2; stroke: #000000" points="853.504,376.784 847.567,367.31 852.784,369.319 857.521,366.35 "/>
  </g>
  <g>
    <line style="fill: none; fill-opacity:0; stroke-width: 2; stroke: #000000" x1="676.724" y1="353.263" x2="685.619" y2="370.359"/>
    <polygon style="fill: #000000" points="689.081,377.013 680.03,370.449 685.619,370.359 688.901,365.834 "/>
    <polygon style="fill: none; fill-opacity:0; stroke-width: 2; stroke: #000000" points="689.081,377.013 680.03,370.449 685.619,370.359 688.901,365.834 "/>
  </g>
</svg>
